<svg xmlns="http://www.w3.org/2000/svg" width="104" height="104" viewBox="0 0 104 104">
  <g id="Group_25" data-name="Group 25" transform="translate(-1065 -2810)">
    <g id="Group_24" data-name="Group 24" transform="translate(1065 2810)">
      <path id="Path_17" data-name="Path 17" d="M88.769,15.231A52,52,0,1,0,15.231,88.769,52,52,0,1,0,88.769,15.231ZM52,97.81A45.81,45.81,0,1,1,97.81,52,45.862,45.862,0,0,1,52,97.81Z" fill="#ff671f"/>
    </g>
    <path id="heart" d="M31.457,55.973a3.689,3.689,0,0,1-2.432-.914c-2.542-2.222-4.992-4.311-7.154-6.153l-.011-.01c-6.338-5.4-11.812-10.066-15.62-14.661C1.983,29.1,0,24.228,0,18.907A19.664,19.664,0,0,1,4.991,5.478,16.918,16.918,0,0,1,17.575,0,15.825,15.825,0,0,1,27.46,3.412a20.224,20.224,0,0,1,4,4.173,20.226,20.226,0,0,1,4-4.173A15.825,15.825,0,0,1,45.339,0,16.918,16.918,0,0,1,57.923,5.478a19.663,19.663,0,0,1,4.99,13.43c0,5.321-1.982,10.191-6.239,15.328-3.808,4.6-9.281,9.26-15.618,14.66-2.166,1.845-4.62,3.937-7.167,6.165a3.692,3.692,0,0,1-2.432.913ZM17.575,3.686A13.273,13.273,0,0,0,7.7,7.976,16,16,0,0,0,3.685,18.907c0,4.475,1.663,8.477,5.392,12.977,3.6,4.349,8.965,8.918,15.173,14.208l.012.01c2.17,1.849,4.63,3.946,7.19,6.185,2.576-2.243,5.039-4.343,7.214-6.2,6.207-5.29,11.567-9.858,15.172-14.207,3.729-4.5,5.392-8.5,5.392-12.977A16,16,0,0,0,55.213,7.976a13.272,13.272,0,0,0-9.875-4.29,12.223,12.223,0,0,0-7.631,2.642,17.883,17.883,0,0,0-4.253,4.921,2.326,2.326,0,0,1-4,0,17.867,17.867,0,0,0-4.253-4.921,12.222,12.222,0,0,0-7.63-2.642Zm0,0" transform="translate(1085.543 2838.771)" fill="#ff671f" stroke="#ff671f" stroke-width="2"/>
  </g>
</svg>
