<svg xmlns="http://www.w3.org/2000/svg" xmlns:xlink="http://www.w3.org/1999/xlink" width="104" height="104" viewBox="0 0 104 104">
  <defs>
    <clipPath id="clip-path">
      <rect id="Rectangle_29" data-name="Rectangle 29" width="104" height="104" transform="translate(338 2810)" fill="#fff" stroke="#707070" stroke-width="1"/>
    </clipPath>
  </defs>
  <g id="Mask_Group_4" data-name="Mask Group 4" transform="translate(-338 -2810)" clip-path="url(#clip-path)">
    <g id="happy" transform="translate(338 2810)">
      <g id="Group_17" data-name="Group 17">
        <g id="Group_16" data-name="Group 16">
          <path id="Path_13" data-name="Path 13" d="M88.769,15.231A52,52,0,1,0,15.231,88.769,52,52,0,1,0,88.769,15.231ZM52,97.81A45.81,45.81,0,1,1,97.81,52,45.862,45.862,0,0,1,52,97.81Z" fill="#ff671f"/>
        </g>
      </g>
      <g id="Group_19" data-name="Group 19">
        <g id="Group_18" data-name="Group 18">
          <path id="Path_14" data-name="Path 14" d="M40.751,38.268a13.014,13.014,0,0,0-18.385,0,3.1,3.1,0,0,0,4.378,4.377,6.817,6.817,0,0,1,9.63,0,3.1,3.1,0,1,0,4.377-4.377Z" fill="#ff671f"/>
        </g>
      </g>
      <g id="Group_21" data-name="Group 21">
        <g id="Group_20" data-name="Group 20">
          <path id="Path_15" data-name="Path 15" d="M81.633,38.268a13.014,13.014,0,0,0-18.385,0,3.1,3.1,0,0,0,4.378,4.377,6.817,6.817,0,0,1,9.63,0,3.1,3.1,0,0,0,4.377-4.377Z" fill="#ff671f"/>
        </g>
      </g>
      <g id="Group_23" data-name="Group 23">
        <g id="Group_22" data-name="Group 22">
          <path id="Path_16" data-name="Path 16" d="M79.444,54.27H24.556a3.1,3.1,0,0,0-3.1,3.1,30.54,30.54,0,0,0,61.079,0A3.1,3.1,0,0,0,79.444,54.27ZM52,81.714A24.385,24.385,0,0,1,27.847,60.46H76.154A24.385,24.385,0,0,1,52,81.714Z" fill="#ff671f"/>
        </g>
      </g>
    </g>
  </g>
</svg>
